/* XPM */
static char *icon_xpm[] = {
    /* columns rows colors chars-per-pixel */
    "64 64 18 1 ", "  c #004D4D", ". c #255B5B", "X c #376868", "o c #457474", "O c #517F7F", "+ c #5B8989", "@ c #659292",
    "# c #6E9C9C", "$ c #76A4A4", "% c #7EADAD", "& c #7AD4D4", "* c #86B5B5", "= c #8DBCBC", "- c #94C4C4", "; c #9BCBCB",
    ": c #8FD6D6", "> c #A2D2D2", ", c #A8D9D9",
    /* pixels */
    "&::::::::::::::::::::::::::::::::::::::::::::::::::::::::::::::&",
    ":,,,,,,,,,,,,,,,,,,,,,,,,,,,,,,,,,,,,,,,,,,,,,,,,,,,,,,,,,,,,,,:",
    ":,,,,,,,,,,,,,,,,,,,,,,,,,,,,,,,,,,,,,,,,,,,,,,,,,,,,,,,,,,,,,,:",
    ":,,,,,,,,,,,,,,,,,,,,,,,,,,,,,,,,,,,,,,,,,,,,,,,,,,,,,,,,,,,,,,:",
    ":,,,,,,,,,,,,,,,,,,,,,,,,,,,,,,,,,,,,,,,,,,,,,,,,,,,,,,,,,,,,,,:",
    ":,,,,,,,,,,,,,,,,,,,,,,,,,,,,,,,,,,,,,,,,,,,,,,,,,,,,,,,,,,,,,,:",
    ":,,,,,,,,,,,,,,,,,,,,,,,,,,,,,,,,,,,,,,,,,,,,,,,,,,,,,,,,,,,,,,:",
    ":,,,,,,,,,,,,,,,,,,,,,,,,,,,,,,,,,,,,,,,,,,,,,,,,,,,,,,,,,,,,,,:",
    ":,,,,,,,,,,,,,,,,,,,,,,,,,,,,,,,,,,,,,,,,,,,,,,,,,,,,,,,,,,,,,,:",
    ":,,,,,,,,,,,,,,,,,,,,,,,,,,,,,,,,,,,,,,,,,,,,,,,,,,,,,,,,,,,,,,:",
    ":,,,,,,,,,,,,,,,,,,,,,,,,,,,,,,,,,,;$+o  .+=,#+,,,,,,,,,,,,,,,,:",
    ":,,,,,,,,,,,,,,,,,,,,,,,,,,,,,,,,;@  @$O    o @,,,,,,,,,,,,,,,,:",
    ":,,,,,,,,,,,,,,,,,,,,,,,,,,,,,,,%. .-,,,$     *,,,,,,,,,,,,,,,,:",
    ":,,,,,,,,,,,,,,,,,,,,,,,,,,,,,,%   =,,,,=    X,,,,,,,,,,,,,,,,,:",
    ":,,,,,,,,,,,,,,,,,,,,,,,,,,,,,%   +,,,,,%    #,,,,,,,,,,,,,,,,,:",
    ":,,,,,,,,,,,,,,,,,,,,,,,,,,,,-.   ;,,,,,+    -,,,,,,,,,,,,,,,,,:",
    ":,,,,,,,,,,,,,,,,,,,,,,,,,,,,O   @,,,,,>    X,,,,,,,,,,,,,,,,,,:",
    ":,,,,,,,,,,,,,,,,,,,,,,,,,,,%    =,,,,,%    #,,,,,,,,,,,,,,,,,,:",
    ":,,,,,,,,,,,,,,,,,,,,,,,,,,,X   X,,,,,,+    -,,,,,,,,,,,,,,,,,,:",
    ":,,,,,,,,,,,,,,,,,,,,,,,,,,%    #,,,,,,.   X,,,,,,,,,,,,,,,,,,,:",
    ":,,,,,,,,,,,,,,,,,,,,,,,,,,X    -,,,,,*    $,,,,,,,,,,,,,,,,,,,:",
    ":,,,,,,,,,,,,,,,,,,,,,,,,,=    X,,,,,,@    ;,,,,,,,,,,,,,,,,,,,:",
    ":,,,,,,,,,,,,,,,,,,,,,,,,,@    #,,,,,,.   o,,,,,,,,,,,,,,,,,,,,:",
    ":,,,,,,,,,,,,,,,,,,,,,,,,>     =,,,,,%    $,,,,,,,,,,,,,,,,,,,,:",
    ":,,,,,,,,,,,,,,,,,,,,>@O.                 ;,,,,,,,,,,,,,,,,,,,,:",
    ":,,,,,,,,,,,,,,,,,,,,%           .OOo    o,,,,,,,,,,,,,,,,,,,,,:",
    ":,,,,,,,,,,,,,,,,,,,,,,,,     $,,,,,*    $,,,,,,,,,,,,,,,,,,,,,:",
    ":,,,,,,,,,,,,,,,,,,,,,,,=     -,,,,,@    -,,,,,,,,,,,,,,,,,,,,,:",
    ":,,,,,,,,,,,,,,,,,,,,,,,$    X,,,,,,.   X,,,,,,,,,,,,,,,,,,,,,,:",
    ":,,,,,,,,,,,,,,,,,,,,,,,O    @,,,,,*    #,,,,,,,,,,,,,,,,,,,,,,:",
    ":,,,,,,,,,,,,,,,,,,,,,,>     %,,,,,@    -,,,,,,,,,,,,,,,,,,,,,,:",
    ":,,,,,,,,,,,,,,,,,,,,,,*     >,,,,,.   X,,,,,,,,,,,,,,,,,,,,,,,:",
    ":,,,,,,,,,,,,,,,,,,,,,,#    o,,,,,*    #,,,,,,,,,,,,,,,,,,,,,,,:",
    ":,,,,,,,,,,,,,,,,,,,,,,o    #,,,,,@    -,,,,,,,,,,,,,,,,,,,,,,,:",
    ":,,,,,,,,,,,,,,,,,,,,,;     *,,,,,.   X,,,,,,,,,,,,,,,,,,,,,,,,:",
    ":,,,,,,,,,,,,,,,,,,,,,%     ,,,,,*    #,,,,,,,,,,,,,,,,,,,,,,,,:",
    ":,,,,,,,,,,,,,,,,,,,,,@    O,,,,,@    -,,,,,,,,,,,,,,,,,,,,,,,,:",
    ":,,,,,,,,,,,,,,,,,,,,,X    $,,,,,.   .,,,-@,,,,,,,,,,,,,,,,,,,,:",
    ":,,,,,,,,,,,,,,,,,,,,;     -,,,,=    @,,-.$,,,,,,,,,,,,,,,,,,,,:",
    ":,,,,,,,,,,,,,,,,,,,,%    .,,,,,$    *,-..>,,,,,,,,,,,,,,,,,,,,:",
    ":,,,,,,,,,,,,,,,,,,,,@    +,,,,,O    ,-. *,,,,,,,,,,,,,,,,,,,,,:",
    ":,,,,,,,,,,,,,,,,,,,,X    %,,,,,     $. %,,,,,,,,,,,,,,,,,,,,,,:",
    ":,,,,,,,,,,,,,,,,,,,;     ;,,,,,O     o-,,,,,,,,,,,,,,,,,,,,,,,:",
    ":,,,,,,,,,,,,,,,,,,,%    X,,,,,,-O .+*,,,,,,,,,,,,,,,,,,,,,,,,,:",
    ":,,,,,,,,,,,,,,,,,,,@    #,,,,,,,,,,,,,,,,,,,,,,,,,,,,,,,,,,,,,:",
    ":,,,,,,,,,,,,,,,,,,,X    *,,,,,,,,,,,,,,,,,,,,,,,,,,,,,,,,,,,,,:",
    ":,,,,,,,,,,,,,,,,,,;     ,,,,,,,,,,,,,,,,,,,,,,,,,,,,,,,,,,,,,,:",
    ":,,,,,,,,,,,,,,,,,,%    +,,,,,,,,,,,,,,,,,,,,,,,,,,,,,,,,,,,,,,:",
    ":,,,,,,,,,,,,,,,,,,@    *,,,,,,,,,,,,,,,,,,,,,,,,,,,,,,,,,,,,,,:",
    ":,,,,,,,,,,,,,,,,,,X   o,,,,,,,,,,,,,,,,,,,,,,,,,,,,,,,,,,,,,,,:",
    ":,,,,,,,,,,,;;,,,,;    =,,,,,,,,,,,,,,,,,,,,,,,,,,,,,,,,,,,,,,,:",
    ":,,,,,,,,,,# .>,,,$   $,,,,,,,,,,,,,,,,,,,,,,,,,,,,,,,,,,,,,,,,:",
    ":,,,,,,,,,%   o,,,X  @,,,,,,,,,,,,,,,,,,,,,,,,,,,,,,,,,,,,,,,,,:",
    ":,,,,,,,,,O    +>$  $,,,,,,,,,,,,,,,,,,,,,,,,,,,,,,,,,,,,,,,,,,:",
    ":,,,,,,,,,%       O-,,,,,,,,,,,,,,,,,,,,,,,,,,,,,,,,,,,,,,,,,,,:",
    ":,,,,,,,,,,*O  o#-,,,,,,,,,,,,,,,,,,,,,,,,,,,,,,,,,,,,,,,,,,,,,:",
    ":,,,,,,,,,,,,,,,,,,,,,,,,,,,,,,,,,,,,,,,,,,,,,,,,,,,,,,,,,,,,,,:",
    ":,,,,,,,,,,,,,,,,,,,,,,,,,,,,,,,,,,,,,,,,,,,,,,,,,,,,,,,,,,,,,,:",
    ":,,,,,,,,,,,,,,,,,,,,,,,,,,,,,,,,,,,,,,,,,,,,,,,,,,,,,,,,,,,,,,:",
    ":,,,,,,,,,,,,,,,,,,,,,,,,,,,,,,,,,,,,,,,,,,,,,,,,,,,,,,,,,,,,,,:",
    ":,,,,,,,,,,,,,,,,,,,,,,,,,,,,,,,,,,,,,,,,,,,,,,,,,,,,,,,,,,,,,,:",
    ":,,,,,,,,,,,,,,,,,,,,,,,,,,,,,,,,,,,,,,,,,,,,,,,,,,,,,,,,,,,,,,:",
    ":,,,,,,,,,,,,,,,,,,,,,,,,,,,,,,,,,,,,,,,,,,,,,,,,,,,,,,,,,,,,,,:",
    "&::::::::::::::::::::::::::::::::::::::::::::::::::::::::::::::&"};
